<svg width="74" height="24" viewBox="0 0 74 24" fill="none" xmlns="http://www.w3.org/2000/svg">
<path d="M16.3535 2.52795L14.5851 4.35395C14.5579 4.33845 14.5319 4.32105 14.5072 4.30189C11.9299 1.97208 8.10787 1.92844 5.52251 4.23149C3.99885 5.58816 3.26091 7.3313 3.29251 9.35714C3.33551 12.1072 4.59346 14.1554 7.06344 15.4024C8.59555 16.1761 10.2239 16.2567 11.8777 15.8325C13.0559 15.5304 14.0801 14.9598 14.8688 14.016C15.5692 13.1778 15.9268 12.1999 16.036 11.1234C16.0389 11.0937 16.036 11.0636 16.036 11.0068H9.98764V8.47237H10.2133C12.9129 8.47237 15.6125 8.47091 18.3119 8.46797C18.4982 8.46797 18.5633 8.52151 18.5868 8.70301C18.9374 11.405 18.4247 13.873 16.5552 15.9458C15.3252 17.3102 13.7541 18.0927 11.9615 18.4359C10.3401 18.7461 8.73115 18.6764 7.1509 18.1891C3.55087 17.0795 0.932423 13.9313 0.550957 10.1957C0.270554 7.44937 1.15513 5.06236 3.01321 3.04898C4.93708 0.966307 7.34678 -0.0676978 10.1971 0.00343584C12.4021 0.0595361 14.3635 0.792139 16.0437 2.23461C16.1455 2.32151 16.2385 2.41795 16.3535 2.52795Z" fill="white"/>
<path d="M46.2453 20.471L48.5429 19.5118C48.5936 19.6126 48.637 19.6981 48.6804 19.7839C49.5583 21.5094 51.6277 22.1672 53.2811 21.2403C54.2028 20.7233 54.6357 19.8873 54.7379 18.8756C54.7919 18.3436 54.7662 17.8035 54.7746 17.267C54.7702 17.246 54.7626 17.2257 54.7522 17.2069C54.7262 17.2247 54.7016 17.2444 54.6787 17.2659C53.7452 18.3201 52.5443 18.689 51.1779 18.5984C48.8884 18.447 46.8484 16.83 46.0961 14.5911C45.156 11.7927 46.3434 8.71084 48.9431 7.30577C50.3455 6.5475 51.8225 6.399 53.3344 6.99337C53.8184 7.18367 54.2351 7.48287 54.6074 7.84404C54.65 7.88547 54.6945 7.92544 54.7724 7.99767V7.0117H57.2791C57.2839 7.07 57.2913 7.1173 57.2913 7.1646C57.2913 10.7946 57.2971 14.4246 57.2817 18.0547C57.2766 19.2467 57.0347 20.3962 56.4306 21.4438C55.5853 22.9104 54.2774 23.6922 52.6269 23.9246C51.265 24.1168 49.9504 23.9554 48.7366 23.2646C47.6025 22.6167 46.8197 21.6553 46.2453 20.471ZM54.9771 12.6342C54.9793 12.1165 54.9069 11.6105 54.7125 11.1309C54.2403 9.96375 53.4134 9.18751 52.14 9.02361C50.8953 8.86374 49.8843 9.35581 49.1375 10.3484C48.1846 11.6149 48.182 13.5974 49.1008 14.8877C50.2981 16.5671 52.6839 16.7339 54.0569 15.228C54.7235 14.4939 54.9727 13.6051 54.9771 12.6342Z" fill="white"/>
<path d="M25.8651 6.63477C27.7353 6.71763 29.5427 7.53274 30.7161 9.43501C32.411 12.1806 31.7484 16.7123 27.7394 18.2204C25.14 19.1976 21.7837 18.3744 20.2512 15.4942C18.5901 12.3724 19.8444 8.50697 23.1328 7.11143C23.8685 6.80013 24.6854 6.64063 25.8651 6.63477ZM25.5825 8.98878C24.4969 8.98878 23.5278 9.44931 22.8931 10.3245C22.0516 11.4851 21.9376 12.7666 22.4345 14.0818C23.3264 16.4384 26.333 17.0115 28.0154 15.1587C28.8687 14.2186 29.0896 13.0881 28.8863 11.8638C28.6078 10.1874 27.2219 8.98878 25.5825 8.98988V8.98878Z" fill="white"/>
<path d="M32.6421 12.578C32.6381 9.25046 35.2741 6.64565 38.6665 6.63795C41.6892 6.63172 44.6891 8.77636 44.6935 12.6088C44.6961 16.0096 42.1005 18.6093 38.7033 18.6038C35.266 18.5983 32.6465 15.9942 32.6421 12.578ZM42.0869 12.4617C42.0501 12.2458 42.0233 11.8575 41.9167 11.4926C41.551 10.2434 40.7503 9.38796 39.4673 9.0862C38.1844 8.78443 37.0602 9.13936 36.1752 10.1246C35.036 11.3914 34.9706 13.4873 35.9985 14.8986C37.0198 16.3033 38.9892 16.6814 40.4478 15.7365C41.572 15.0097 42.0406 13.9292 42.0854 12.4617H42.0869Z" fill="white"/>
<path d="M65.8551 14.4338C66.4916 15.7365 67.5379 16.2425 68.7216 16.2543C70.0285 16.2675 71.0078 15.6889 71.7256 14.6083L73.8141 15.9947C73.5451 16.2928 73.2996 16.5883 73.0309 16.8589C70.6334 19.2668 66.6364 19.1876 64.3631 16.6847C63.5751 15.8183 63.1224 14.7887 62.9603 13.6381C62.7497 12.1516 62.9489 10.7301 63.6953 9.40821C65.0606 6.9882 68.0796 5.95639 70.5595 7.06703C71.8943 7.66507 72.813 8.67634 73.4076 9.99415C73.5704 10.3549 73.7196 10.722 73.8854 11.111L65.8551 14.4338ZM65.3913 12.405L65.4601 12.4347L70.8256 10.1958C70.6841 10.0081 70.5782 9.83465 70.4408 9.69091C69.8528 9.07711 69.1137 8.85308 68.2872 8.95171C66.9506 9.11084 65.7548 10.2222 65.4773 11.5433C65.4189 11.8242 65.4185 12.1175 65.3913 12.405Z" fill="white"/>
<path d="M59.0576 0.621338H61.6742V18.2394H59.0576V0.621338Z" fill="white"/>
</svg>
